<svg xmlns="http://www.w3.org/2000/svg" width="800" height="160" viewBox="0 0 800 160">
  <defs>
    <filter id="glow" x="-80%" y="-80%" width="260%" height="260%">
      <feGaussianBlur stdDeviation="2.5" result="blur"/>
      <feMerge>
        <feMergeNode in="blur"/>
        <feMergeNode in="blur"/>
        <feMergeNode in="SourceGraphic"/>
      </feMerge>
    </filter>
    <radialGradient id="bg" cx="50%" cy="50%" r="70%">
      <stop offset="0%" stop-color="#0f1f14"/>
      <stop offset="100%" stop-color="#080f0b"/>
    </radialGradient>
  </defs>
  <rect width="800" height="160" rx="10" fill="url(#bg)"/>
  <circle cx="40" cy="40" r="5.5" fill="#00e87a" filter="url(#glow)"/>
  <circle cx="60" cy="40" r="5.5" fill="#00e87a" filter="url(#glow)"/>
  <circle cx="80" cy="40" r="5.5" fill="#00e87a" filter="url(#glow)"/>
  <circle cx="100" cy="40" r="5.5" fill="#00e87a" filter="url(#glow)"/>
  <circle cx="120" cy="40" r="3.6" fill="#0d2018"/>
  <circle cx="40" cy="60" r="5.5" fill="#00e87a" filter="url(#glow)"/>
  <circle cx="60" cy="60" r="3.6" fill="#0d2018"/>
  <circle cx="80" cy="60" r="3.6" fill="#0d2018"/>
  <circle cx="100" cy="60" r="3.6" fill="#0d2018"/>
  <circle cx="120" cy="60" r="5.5" fill="#00e87a" filter="url(#glow)"/>
  <circle cx="40" cy="80" r="5.5" fill="#00e87a" filter="url(#glow)"/>
  <circle cx="60" cy="80" r="5.5" fill="#00e87a" filter="url(#glow)"/>
  <circle cx="80" cy="80" r="5.5" fill="#00e87a" filter="url(#glow)"/>
  <circle cx="100" cy="80" r="5.5" fill="#00e87a" filter="url(#glow)"/>
  <circle cx="120" cy="80" r="3.6" fill="#0d2018"/>
  <circle cx="40" cy="100" r="5.5" fill="#00e87a" filter="url(#glow)"/>
  <circle cx="60" cy="100" r="3.6" fill="#0d2018"/>
  <circle cx="80" cy="100" r="3.6" fill="#0d2018"/>
  <circle cx="100" cy="100" r="3.6" fill="#0d2018"/>
  <circle cx="120" cy="100" r="3.6" fill="#0d2018"/>
  <circle cx="40" cy="120" r="5.5" fill="#00e87a" filter="url(#glow)"/>
  <circle cx="60" cy="120" r="3.6" fill="#0d2018"/>
  <circle cx="80" cy="120" r="3.6" fill="#0d2018"/>
  <circle cx="100" cy="120" r="3.6" fill="#0d2018"/>
  <circle cx="120" cy="120" r="3.6" fill="#0d2018"/>
  <circle cx="168" cy="40" r="5.5" fill="#00e87a" filter="url(#glow)"/>
  <circle cx="188" cy="40" r="3.6" fill="#0d2018"/>
  <circle cx="208" cy="40" r="3.6" fill="#0d2018"/>
  <circle cx="228" cy="40" r="3.6" fill="#0d2018"/>
  <circle cx="248" cy="40" r="5.5" fill="#00e87a" filter="url(#glow)"/>
  <circle cx="168" cy="60" r="5.5" fill="#00e87a" filter="url(#glow)"/>
  <circle cx="188" cy="60" r="3.6" fill="#0d2018"/>
  <circle cx="208" cy="60" r="3.6" fill="#0d2018"/>
  <circle cx="228" cy="60" r="3.6" fill="#0d2018"/>
  <circle cx="248" cy="60" r="5.5" fill="#00e87a" filter="url(#glow)"/>
  <circle cx="168" cy="80" r="3.6" fill="#0d2018"/>
  <circle cx="188" cy="80" r="5.5" fill="#00e87a" filter="url(#glow)"/>
  <circle cx="208" cy="80" r="5.5" fill="#00e87a" filter="url(#glow)"/>
  <circle cx="228" cy="80" r="5.5" fill="#00e87a" filter="url(#glow)"/>
  <circle cx="248" cy="80" r="5.5" fill="#00e87a" filter="url(#glow)"/>
  <circle cx="168" cy="100" r="3.6" fill="#0d2018"/>
  <circle cx="188" cy="100" r="3.6" fill="#0d2018"/>
  <circle cx="208" cy="100" r="3.6" fill="#0d2018"/>
  <circle cx="228" cy="100" r="3.6" fill="#0d2018"/>
  <circle cx="248" cy="100" r="5.5" fill="#00e87a" filter="url(#glow)"/>
  <circle cx="168" cy="120" r="3.6" fill="#0d2018"/>
  <circle cx="188" cy="120" r="5.5" fill="#00e87a" filter="url(#glow)"/>
  <circle cx="208" cy="120" r="5.5" fill="#00e87a" filter="url(#glow)"/>
  <circle cx="228" cy="120" r="5.5" fill="#00e87a" filter="url(#glow)"/>
  <circle cx="248" cy="120" r="3.6" fill="#0d2018"/>
  <circle cx="296" cy="40" r="5.5" fill="#00e87a" filter="url(#glow)"/>
  <circle cx="316" cy="40" r="5.5" fill="#00e87a" filter="url(#glow)"/>
  <circle cx="336" cy="40" r="3.6" fill="#0d2018"/>
  <circle cx="356" cy="40" r="5.5" fill="#00e87a" filter="url(#glow)"/>
  <circle cx="376" cy="40" r="3.6" fill="#0d2018"/>
  <circle cx="296" cy="60" r="5.5" fill="#00e87a" filter="url(#glow)"/>
  <circle cx="316" cy="60" r="3.6" fill="#0d2018"/>
  <circle cx="336" cy="60" r="5.5" fill="#00e87a" filter="url(#glow)"/>
  <circle cx="356" cy="60" r="3.6" fill="#0d2018"/>
  <circle cx="376" cy="60" r="5.5" fill="#00e87a" filter="url(#glow)"/>
  <circle cx="296" cy="80" r="5.5" fill="#00e87a" filter="url(#glow)"/>
  <circle cx="316" cy="80" r="3.6" fill="#0d2018"/>
  <circle cx="336" cy="80" r="5.5" fill="#00e87a" filter="url(#glow)"/>
  <circle cx="356" cy="80" r="3.6" fill="#0d2018"/>
  <circle cx="376" cy="80" r="5.5" fill="#00e87a" filter="url(#glow)"/>
  <circle cx="296" cy="100" r="5.5" fill="#00e87a" filter="url(#glow)"/>
  <circle cx="316" cy="100" r="3.6" fill="#0d2018"/>
  <circle cx="336" cy="100" r="5.5" fill="#00e87a" filter="url(#glow)"/>
  <circle cx="356" cy="100" r="3.6" fill="#0d2018"/>
  <circle cx="376" cy="100" r="5.5" fill="#00e87a" filter="url(#glow)"/>
  <circle cx="296" cy="120" r="5.5" fill="#00e87a" filter="url(#glow)"/>
  <circle cx="316" cy="120" r="3.6" fill="#0d2018"/>
  <circle cx="336" cy="120" r="3.6" fill="#0d2018"/>
  <circle cx="356" cy="120" r="3.6" fill="#0d2018"/>
  <circle cx="376" cy="120" r="5.5" fill="#00e87a" filter="url(#glow)"/>
  <circle cx="424" cy="40" r="3.6" fill="#0d2018"/>
  <circle cx="444" cy="40" r="5.5" fill="#00e87a" filter="url(#glow)"/>
  <circle cx="464" cy="40" r="5.5" fill="#00e87a" filter="url(#glow)"/>
  <circle cx="484" cy="40" r="5.5" fill="#00e87a" filter="url(#glow)"/>
  <circle cx="504" cy="40" r="3.6" fill="#0d2018"/>
  <circle cx="424" cy="60" r="5.5" fill="#00e87a" filter="url(#glow)"/>
  <circle cx="444" cy="60" r="3.6" fill="#0d2018"/>
  <circle cx="464" cy="60" r="3.6" fill="#0d2018"/>
  <circle cx="484" cy="60" r="3.6" fill="#0d2018"/>
  <circle cx="504" cy="60" r="5.5" fill="#00e87a" filter="url(#glow)"/>
  <circle cx="424" cy="80" r="5.5" fill="#00e87a" filter="url(#glow)"/>
  <circle cx="444" cy="80" r="3.6" fill="#0d2018"/>
  <circle cx="464" cy="80" r="3.6" fill="#0d2018"/>
  <circle cx="484" cy="80" r="3.6" fill="#0d2018"/>
  <circle cx="504" cy="80" r="5.5" fill="#00e87a" filter="url(#glow)"/>
  <circle cx="424" cy="100" r="5.5" fill="#00e87a" filter="url(#glow)"/>
  <circle cx="444" cy="100" r="3.6" fill="#0d2018"/>
  <circle cx="464" cy="100" r="3.6" fill="#0d2018"/>
  <circle cx="484" cy="100" r="5.5" fill="#00e87a" filter="url(#glow)"/>
  <circle cx="504" cy="100" r="5.5" fill="#00e87a" filter="url(#glow)"/>
  <circle cx="424" cy="120" r="3.6" fill="#0d2018"/>
  <circle cx="444" cy="120" r="5.5" fill="#00e87a" filter="url(#glow)"/>
  <circle cx="464" cy="120" r="5.5" fill="#00e87a" filter="url(#glow)"/>
  <circle cx="484" cy="120" r="3.6" fill="#0d2018"/>
  <circle cx="504" cy="120" r="5.5" fill="#00e87a" filter="url(#glow)"/>
  <circle cx="552" cy="40" r="5.5" fill="#00e87a" filter="url(#glow)"/>
  <circle cx="572" cy="40" r="3.6" fill="#0d2018"/>
  <circle cx="592" cy="40" r="5.5" fill="#00e87a" filter="url(#glow)"/>
  <circle cx="612" cy="40" r="5.5" fill="#00e87a" filter="url(#glow)"/>
  <circle cx="632" cy="40" r="3.6" fill="#0d2018"/>
  <circle cx="552" cy="60" r="5.5" fill="#00e87a" filter="url(#glow)"/>
  <circle cx="572" cy="60" r="5.5" fill="#00e87a" filter="url(#glow)"/>
  <circle cx="592" cy="60" r="3.6" fill="#0d2018"/>
  <circle cx="612" cy="60" r="3.6" fill="#0d2018"/>
  <circle cx="632" cy="60" r="5.5" fill="#00e87a" filter="url(#glow)"/>
  <circle cx="552" cy="80" r="5.5" fill="#00e87a" filter="url(#glow)"/>
  <circle cx="572" cy="80" r="3.6" fill="#0d2018"/>
  <circle cx="592" cy="80" r="3.6" fill="#0d2018"/>
  <circle cx="612" cy="80" r="3.6" fill="#0d2018"/>
  <circle cx="632" cy="80" r="3.6" fill="#0d2018"/>
  <circle cx="552" cy="100" r="5.5" fill="#00e87a" filter="url(#glow)"/>
  <circle cx="572" cy="100" r="3.6" fill="#0d2018"/>
  <circle cx="592" cy="100" r="3.6" fill="#0d2018"/>
  <circle cx="612" cy="100" r="3.6" fill="#0d2018"/>
  <circle cx="632" cy="100" r="3.6" fill="#0d2018"/>
  <circle cx="552" cy="120" r="5.5" fill="#00e87a" filter="url(#glow)"/>
  <circle cx="572" cy="120" r="3.6" fill="#0d2018"/>
  <circle cx="592" cy="120" r="3.6" fill="#0d2018"/>
  <circle cx="612" cy="120" r="3.6" fill="#0d2018"/>
  <circle cx="632" cy="120" r="3.6" fill="#0d2018"/>
  <circle cx="680" cy="40" r="3.6" fill="#0d2018"/>
  <circle cx="700" cy="40" r="5.5" fill="#00e87a" filter="url(#glow)"/>
  <circle cx="720" cy="40" r="5.5" fill="#00e87a" filter="url(#glow)"/>
  <circle cx="740" cy="40" r="5.5" fill="#00e87a" filter="url(#glow)"/>
  <circle cx="760" cy="40" r="5.5" fill="#00e87a" filter="url(#glow)"/>
  <circle cx="680" cy="60" r="5.5" fill="#00e87a" filter="url(#glow)"/>
  <circle cx="700" cy="60" r="3.6" fill="#0d2018"/>
  <circle cx="720" cy="60" r="3.6" fill="#0d2018"/>
  <circle cx="740" cy="60" r="3.6" fill="#0d2018"/>
  <circle cx="760" cy="60" r="5.5" fill="#00e87a" filter="url(#glow)"/>
  <circle cx="680" cy="80" r="3.6" fill="#0d2018"/>
  <circle cx="700" cy="80" r="5.5" fill="#00e87a" filter="url(#glow)"/>
  <circle cx="720" cy="80" r="5.5" fill="#00e87a" filter="url(#glow)"/>
  <circle cx="740" cy="80" r="5.5" fill="#00e87a" filter="url(#glow)"/>
  <circle cx="760" cy="80" r="5.5" fill="#00e87a" filter="url(#glow)"/>
  <circle cx="680" cy="100" r="3.6" fill="#0d2018"/>
  <circle cx="700" cy="100" r="3.6" fill="#0d2018"/>
  <circle cx="720" cy="100" r="3.6" fill="#0d2018"/>
  <circle cx="740" cy="100" r="3.6" fill="#0d2018"/>
  <circle cx="760" cy="100" r="5.5" fill="#00e87a" filter="url(#glow)"/>
  <circle cx="680" cy="120" r="3.6" fill="#0d2018"/>
  <circle cx="700" cy="120" r="3.6" fill="#0d2018"/>
  <circle cx="720" cy="120" r="3.6" fill="#0d2018"/>
  <circle cx="740" cy="120" r="3.6" fill="#0d2018"/>
  <circle cx="760" cy="120" r="5.5" fill="#00e87a" filter="url(#glow)"/>
</svg>
